# AST/ASF file generated using VICON BodyLanguage
# -----------------------------------------------
:version 1.10
:name VICON
:units
  mass 1.0
  length 0.45
  angle deg
:documentation
   .ast/.asf automatically generated from VICON data using
   VICON BodyBuilder and BodyLanguage model FoxedUp or BRILLIANT.MOD
:root
   order TX TY TZ RX RY RZ
   axis XYZ
   position 0 0 0  
   orientation 0 0 0 
:bonedata
  begin
     id 1 
     name lhipjoint
     direction 0.64773 -0.699417 0.302095 
     length 2.48597 
     axis 0 0 0  XYZ
  end
  begin
     id 2 
     name lfemur
     direction 0.34202 -0.939693 0  
     length 6.71947  
     axis 0 0 20  XYZ
    dof rx ry rz
    limits (-160.0 20.0)
           (-70.0 70.0)
           (-60.0 70.0)
  end
  begin
     id 3 
     name ltibia
     direction 0.34202 -0.939693 0   
     length 8.08777   
     axis 0 0 20   XYZ
    dof rx
    limits (-10.0 170.0)
  end
  begin
     id 4 
     name lfoot
     direction 0.0808503 -0.222134 0.971658   
     length 2.08264   
     axis -90 7.62852e-016 20   XYZ
    dof rx rz
    limits (-45.0 90.0)
           (-70.0 20.0)
  end
  begin
     id 5 
     name ltoes
     direction 1.53502e-011 -4.22007e-011 1   
     length 1.04662   
     axis -90 7.62852e-016 20   XYZ
    dof rx
    limits (-90.0 20.0)
  end
  begin
     id 6 
     name rhipjoint
     direction -0.610924 -0.726792 0.313919   
     length 2.39233  
     axis 0 0 0  XYZ 
  end
  begin
     id 7 
     name rfemur
     direction -0.34202 -0.939693 0   
     length 6.96955   
     axis 0 0 -20   XYZ
    dof rx ry rz
    limits (-160.0 20.0)
           (-70.0 70.0)
           (-70.0 60.0)
  end
  begin
     id 8 
     name rtibia
     direction -0.34202 -0.939693 0   
     length 8.19584   
     axis 0 0 -20   XYZ
    dof rx
    limits (-10.0 170.0)
 end
 begin
     id 9 
     name rfoot
     direction -0.077777 -0.213691 0.9738   
     length 2.07539  
     axis -90 -7.62852e-016 -20   XYZ
    dof rx rz
    limits (-45.0 90.0)
           (-20.0 70.0)
  end
  begin
     id 10 
     name rtoes
     direction -1.53558e-011 -4.22006e-011 1   
     length 1.04381   
     axis -90 -7.62852e-016 -20   XYZ
    dof rx
    limits (-90.0 20.0)
  end
  begin
     id 11 
     name lowerback
     direction -0.00971646 0.996074 0.0879841   
     length 1.67643   
     axis 0 0 0   XYZ
    dof rx ry rz
    limits (-20.0 45.0)
           (-30.0 30.0)
           (-30.0 30.0)
  end
  begin
     id 12 
     name upperback
     direction 0.0127391 0.991676 0.128127   
     length 1.63741   
     axis 0 0 0   XYZ
    dof rx ry rz
    limits (-20.0 45.0)
           (-30.0 30.0)
           (-30.0 30.0)
  end
  begin
     id 13 
     name thorax
     direction 0.0167583 0.996049 0.0872067   
     length 1.65931   
     axis 0 0 0   XYZ
    dof rx ry rz
    limits (-20.0 45.0)
           (-30.0 30.0)
           (-30.0 30.0)
  end
  begin
     id 14 
     name lowerneck
     direction -0.0317829 0.998312 0.0486079   
     length 1.79021   
     axis 0 0 0   XYZ
    dof rx ry rz
    limits (-20.0 45.0)
           (-30.0 30.0)
           (-30.0 30.0)
  end
  begin
     id 15 
     name upperneck
     direction 0.0896851 0.972452 -0.215159   
     length 1.78797   
     axis 0 0 0   XYZ
    dof rx ry rz
    limits (-20.0 45.0)
           (-30.0 30.0)
           (-30.0 30.0)
  end
  begin
     id 16
     name head
     direction 0.0310949 0.996503 -0.0775582  
     length 1.81549  
     axis 0 0 0   XYZ
    dof rx ry rz
    limits (-20.0 45.0)
           (-30.0 30.0)
           (-30.0 30.0)
  end
  begin
     id 17 
     name lclavicle
     direction 0.853638 0.502051 -0.138733  
     length 3.31627  
     axis 0 0 0   XYZ
    dof ry rz
    limits (-20.0 10.0)
           (0.0 20.0)
  end
  begin
     id 18 
     name lhumerus
     direction 1 -4.48962e-011 -1.41788e-018   
     length 5.54893   
     axis 180 -30 -90   XYZ
    dof rx ry rz
    limits (-60.0 90.0)
           (-90.0 90.0)
           (-90.0 90.0)
  end
  begin
     id 19
     name lradius
     direction 1 -4.48962e-011 -4.95754e-027   
     length 3.02898   
     axis 180 -30 -90   XYZ
    dof rx
    limits (-10.0 170.0)
  end
  begin
     id 20
     name lwrist
     direction 1 -4.48952e-011 -1.03764e-026   
     length 1.51449   
     axis 9.09556e-015 90 90   XYZ
    dof ry
    limits (-180.0 0.0)
 end
  begin
     id 21 
     name lhand
     direction 1 -4.4902e-011 -2.07528e-026   
     length 0.640951   
     axis 1.3242e-014 90 90   XYZ
    dof rx rz
    limits (-90.0 90.0)
           (-45.0 45.0)
  end
  begin
     id 22 
     name lfingers
     direction 1 -4.49014e-011 -4.15056e-026   
     length 0.516751   
     axis 2.64841e-014 90 90   XYZ
    dof rx
    limits (0.0 90.0)
  end
  begin
     id 23
     name lthumb
     direction 0.707107 -6.35008e-011 0.707107   
     length 0.741954   
     axis -90 45 2.85299e-015   XYZ
    dof rx rz
    limits (-45.0 45.0)
           (-45.0 45.0)
  end
  begin
     id 24 
     name rclavicle
     direction -0.888531 0.455324 -0.0565039   
     length 3.20126  
     axis 0 0 0   XYZ 
    dof ry rz
    limits (-10.0 20.0)
           (-20.0 0.0)
  end
  begin
     id 25 
     name rhumerus
     direction -1 -4.48946e-011 -8.98298e-028  
     length 5.3519   
     axis 180 30 90   XYZ
    dof rx ry rz
    limits (-90.0 60.0)
           (-90.0 90.0)
           (-90.0 90.0)
  end
  begin
     id 26 
     name rradius
     direction -1 -4.4899e-011 -3.18779e-027   
     length 3.02531   
     axis 180 30 90   XYZ
    dof rx
    limits (-10.0 170.0)
  end
  begin
     id 27 
     name rwrist
     direction -1 -4.4897e-011 -1.03764e-026   
     length 1.51266   
     axis 9.09556e-015 -90 -90   XYZ
    dof ry
    limits (-180.0 0.0)
  end
  begin
     id 28
     name rhand
     direction -1 -4.48941e-011 -2.07528e-026   
     length 0.78389   
     axis 1.3242e-014 -90 -90   XYZ
    dof rx rz
    limits (-90.0 90.0)
           (-45.0 45.0)
  end
  begin
     id 29
     name rfingers
     direction -1 -4.49012e-011 -4.15056e-026   
     length 0.631992   
     axis 2.64841e-014 -90 -90   XYZ
    dof rx
    limits (0.0 90.0)
  end
  begin
     id 30
     name rthumb
     direction -0.707107 -6.3496e-011 0.707107   
     length 0.907418   
     axis -90 -45 -2.85299e-015   XYZ
    dof rx rz
    limits (-45.0 45.0)
           (-45.0 45.0)
  end
:hierarchy
  begin
    root lhipjoint rhipjoint lowerback
    lhipjoint lfemur
    lfemur ltibia
    ltibia lfoot
    lfoot ltoes
    rhipjoint rfemur
    rfemur rtibia
    rtibia rfoot
    rfoot rtoes
    lowerback upperback
    upperback thorax
    thorax lowerneck lclavicle rclavicle
    lowerneck upperneck
    upperneck head
    lclavicle lhumerus
    lhumerus lradius
    lradius lwrist
    lwrist lhand lthumb
    lhand lfingers
    rclavicle rhumerus
    rhumerus rradius
    rradius rwrist
    rwrist rhand rthumb
    rhand rfingers
  end

#!OML:ASF E:\Style3\Style3.ASF
:FULLY-SPECIFIED
:DEGREES
1825
root 0.0994703 17.851 0.5224 -102.363 88.1388 -120.031
lowerback -10.2339 -1.61916 -0.243217
upperback -10.4841 -1.51555 1.59849
thorax -5.20948 -0.434613 1.70097
lowerneck -9.37591 -2.74012 -6.16254
upperneck 16.3793 -4.17788 9.27519
head 6.85239 -1.54966 3.67029
rclavicle 1.4064e-014 -1.22253e-014
rhumerus -55.3086 12.5252 -85.3415
rradius 83.5977
rwrist 23.4216
rhand -41.6389 54.7894
rfingers 7.12502
rthumb -14.5473 25.3195
lclavicle 1.4064e-014 -1.22253e-014
lhumerus -54.2532 -1.53678 81.3793
lradius 78.2198
lwrist 10.7383
lhand -29.4429 4.47611
lfingers 7.12502
lthumb -2.77948 34.4377
rfemur -15.9209 12.6733 17.3169
rtibia 12.3647
rfoot -12.8642 -20.6927
rtoes -16.9292
lfemur 0 0 0
ltibia 0
lfoot 0 0
ltoes 0
1826
root 0.105806 17.8502 0.521161 -105.909 88.1692 -123.459
lowerback -10.1836 -1.64737 -0.290652
upperback -10.4402 -1.55664 1.56743
thorax -5.1874 -0.455993 1.69318
lowerneck -9.36366 -2.74009 -6.14626
upperneck 16.3737 -4.17887 9.26579
head 6.84799 -1.55024 3.66435
rclavicle 1.65116e-014 -1.87852e-014
rhumerus -55.7348 12.0498 -85.6104
rradius 82.2679
rwrist 24.8977
rhand -41.612 55.1035
rfingers 7.12502
rthumb -14.5213 25.6317
lclavicle 1.65116e-014 -1.87852e-014
lhumerus -54.6708 -1.17802 81.6496
lradius 76.8927
lwrist 10.2063
lhand -29.9268 4.26212
lfingers 7.12502
lthumb -3.24681 34.2171
rfemur -15.7679 12.723 17.2579
rtibia 12.4086
rfoot -13.0552 -20.7848
rtoes -16.5522
lfemur 0 0 0
ltibia 0
lfoot 0 0
ltoes 0
1827
root 0.112434 17.8485 0.519261 -109.659 88.2131 -127.1
lowerback -10.1181 -1.64875 -0.348112
upperback -10.4025 -1.56182 1.50953
thorax -5.18194 -0.459423 1.66536
lowerneck -9.3715 -2.77539 -6.11943
upperneck 16.3666 -4.22927 9.25458
head 6.85066 -1.57361 3.65133
rclavicle -3.91357e-015 -1.09332e-014
rhumerus -56.1199 11.5361 -85.7789
rradius 80.9615
rwrist 26.2674
rhand -41.6287 55.2765
rfingers 7.12502
rthumb -14.5375 25.8058
lclavicle -3.91357e-015 -1.09332e-014
lhumerus -55.0747 -0.89323 81.8758
lradius 75.663
lwrist 9.81344
lhand -30.267 3.92183
lfingers 7.12502
lthumb -3.57529 33.8716
rfemur -15.6241 12.654 17.1939
rtibia 12.4319
rfoot -13.0986 -20.819
rtoes -16.4725
lfemur 0 0 0
ltibia 0
lfoot 0 0
ltoes 0
1828
root 0.114268 17.8472 0.516439 -107.768 88.2521 -125.148
lowerback -10.0011 -1.57714 -0.304076
upperback -10.4063 -1.47227 1.45858
thorax -5.2556 -0.419559 1.59484
lowerneck -9.40094 -2.80654 -6.12263
upperneck 16.3987 -4.28047 9.30595
head 6.87162 -1.59233 3.66442
rclavicle 9.87711e-015 -3.77691e-015
rhumerus -56.5158 11.0058 -85.8911
rradius 79.5536
rwrist 27.6021
rhand -41.7348 55.3935
rfingers 7.12502
rthumb -14.6396 25.9302
lclavicle 9.87711e-015 -3.77691e-015
lhumerus -55.4016 -0.681302 82.0817
lradius 74.3934
lwrist 9.66761
lhand -30.35 3.8045
lfingers 7.12502
lthumb -3.65549 33.7529
rfemur -15.5998 12.5322 17.2088
rtibia 12.4821
rfoot -13.0182 -20.6705
rtoes -16.9157
lfemur 0 0 0
ltibia 0
lfoot 0 0
ltoes 0
1829
root 0.116335 17.8466 0.514587 -109.249 88.2069 -126.641
lowerback -9.96548 -1.607 -0.253951
upperback -10.42 -1.51411 1.45989
thorax -5.29021 -0.443257 1.56687
lowerneck -9.44381 -2.78457 -6.08824
upperneck 16.4302 -4.25258 9.28579
head 6.88587 -1.57689 3.65472
rclavicle 1.79776e-014 6.75868e-015
rhumerus -56.7596 10.7055 -86.0545
rradius 78.0006
rwrist 28.7574
rhand -41.9409 55.2369
rfingers 7.12502
rthumb -14.8382 25.7882
lclavicle 1.79776e-014 6.75868e-015
lhumerus -55.7447 -0.354444 82.2222
lradius 73.1904
lwrist 9.69571
lhand -30.3669 3.8073
lfingers 7.12502
lthumb -3.67177 33.7554
rfemur -15.6271 12.421 17.2483
rtibia 12.5392
rfoot -13.0153 -20.6259
rtoes -17.1664
lfemur 0 0 0
ltibia 0
lfoot 0 0
ltoes 0
1830
root 0.122193 17.8468 0.518506 -111.899 88.1769 -129.367
lowerback -10.0615 -1.65255 -0.323667
upperback -10.4341 -1.56732 1.46887
thorax -5.24896 -0.463921 1.6105
lowerneck -9.53171 -2.80508 -6.10766
upperneck 16.4877 -4.28108 9.30345
head 6.92313 -1.58719 3.66146
rclavicle -1.0461e-014 -6.95746e-016
rhumerus -56.9129 10.4751 -86.2274
rradius 76.3599
rwrist 29.485
rhand -42.0992 55.2505
rfingers 7.12502
rthumb -14.9908 25.8131
lclavicle -1.0461e-014 -6.95746e-016
lhumerus -56.1039 -0.131548 82.4025
lradius 72.0651
lwrist 9.93333
lhand -30.5045 3.75114
lfingers 7.12502
lthumb -3.80467 33.6969
rfemur -15.6842 12.5027 17.2275
rtibia 12.5654
rfoot -13.1274 -20.7716
rtoes -16.8632
lfemur 0 0 0
ltibia 0
lfoot 0 0
ltoes 0
1831
root 0.128233 17.8466 0.521834 -112.581 88.1903 -130.072
lowerback -10.158 -1.67911 -0.406613
upperback -10.4155 -1.59737 1.48867
thorax -5.17189 -0.473471 1.67358
lowerneck -9.54345 -2.7908 -6.15773
upperneck 16.4667 -4.26012 9.35095
head 6.91872 -1.5766 3.68716
rclavicle 1.16786e-015 -8.54774e-015
rhumerus -57.069 10.3274 -86.345
rradius 74.7621
rwrist 29.9005
rhand -42.1547 55.6428
rfingers 7.12502
rthumb -15.0442 26.2094
lclavicle 1.16786e-015 -8.54774e-015
lhumerus -56.3911 0.0594697 82.626
lradius 70.8234
lwrist 10.1937
lhand -30.6693 3.67035
lfingers 7.12502
lthumb -3.96377 33.6132
rfemur -15.7095 12.7587 17.1712
rtibia 12.589
rfoot -13.2521 -21.0126
rtoes -16.4841
lfemur 0 0 0
ltibia 0
lfoot 0 0
ltoes 0
1832
root 0.132093 17.8459 0.523848 -111.865 88.2012 -129.35
lowerback -10.1725 -1.68562 -0.440362
upperback -10.4022 -1.60503 1.49737
thorax -5.14808 -0.475521 1.70063
lowerneck -9.63814 -2.77541 -6.15244
upperneck 16.565 -4.242 9.35354
head 6.96551 -1.56304 3.68975
rclavicle 8.01351e-015 -6.75868e-015
rhumerus -57.261 10.246 -86.501
rradius 73.3241
rwrist 29.9271
rhand -41.9391 56.1053
rfingers 7.12502
rthumb -14.8365 26.6565
lclavicle 8.01351e-015 -6.75868e-015
lhumerus -56.6364 0.275885 82.7544
lradius 69.5812
lwrist 10.3383
lhand -30.65 3.77668
lfingers 7.12502
lthumb -3.94511 33.7199
rfemur -15.7217 12.9101 17.156
rtibia 12.6172
rfoot -13.3406 -21.1061
rtoes -16.3273
lfemur 0 0 0
ltibia 0
lfoot 0 0
ltoes 0
1833
root 0.13645 17.8454 0.524381 -112.041 88.2014 -129.516
lowerback -10.2018 -1.71681 -0.467605
upperback -10.3843 -1.64606 1.50956
thorax -5.11005 -0.494889 1.7254
lowerneck -9.69564 -2.7518 -6.12915
upperneck 16.6083 -4.20974 9.32964
head 6.98595 -1.54606 3.68123
rclavicle 1.02498e-014 -4.96962e-016
rhumerus -57.3421 10.19 -86.6557
rradius 71.7818
rwrist 29.7646
rhand -41.8048 56.7041
rfingers 7.12502
rthumb -14.7071 27.2458
lclavicle 1.02498e-014 -4.96962e-016
lhumerus -56.8834 0.551823 82.8152
lradius 68.4337
lwrist 10.338
lhand -30.677 4.52088
lfingers 7.12502
lthumb -3.97119 34.4636
rfemur -15.7008 12.8613 17.1741
rtibia 12.6294
rfoot -13.3045 -21.0979
rtoes -16.7655
lfemur 0 0 0
ltibia 0
lfoot 0 0
ltoes 0
1834
root 0.141787 17.844 0.524568 -111.921 88.2217 -129.389
lowerback -10.2349 -1.72621 -0.485521
upperback -10.3868 -1.65738 1.49423
thorax -5.09406 -0.499899 1.71802
lowerneck -9.68329 -2.76476 -6.10477
upperneck 16.6057 -4.22904 9.31246
head 6.98371 -1.55556 3.66964
rclavicle -3.35946e-014 9.14409e-015
rhumerus -57.3798 10.0178 -86.7732
rradius 70.1054
rwrist 29.6939
rhand -41.8744 56.8153
rfingers 7.12502
rthumb -14.7742 27.3619
lclavicle -3.35946e-014 9.14409e-015
lhumerus -57.0843 0.804648 82.8216
lradius 67.1825
lwrist 10.0858
lhand -30.9162 5.50785
lfingers 7.12502
lthumb -4.20219 35.4461
rfemur -15.6622 12.7823 17.1845
rtibia 12.6273
rfoot -13.2707 -21.0308
rtoes -17.0027
lfemur 0 0 0
ltibia 0
lfoot 0 0
ltoes 0
1835
root 0.146134 17.8431 0.524049 -111.332 88.213 -128.778
lowerback -10.2639 -1.73273 -0.470787
upperback -10.3841 -1.66674 1.49367
thorax -5.07543 -0.505634 1.70796
lowerneck -9.61279 -2.7851 -6.13091
upperneck 16.5736 -4.25652 9.33063
head 6.96407 -1.57103 3.67746
rclavicle -1.53685e-014 1.98785e-016
rhumerus -57.3749 9.69093 -86.759
rradius 68.35
rwrist 30.0304
rhand -42.2469 56.7414
rfingers 7.12502
rthumb -15.1331 27.3147
lclavicle -1.53685e-014 1.98785e-016
lhumerus -57.29 1.00207 82.8988
lradius 66.0303
lwrist 9.86604
lhand -31.4249 5.32211
lfingers 7.12502
lthumb -4.69339 35.2501
rfemur -15.6152 12.8189 17.2089
rtibia 12.6266
rfoot -13.3097 -21.0273
rtoes -16.8513
lfemur 0 0 0
ltibia 0
lfoot 0 0
ltoes 0
1836
root 0.151326 17.8429 0.523331 -110.898 88.263 -128.335
lowerback -10.3347 -1.75065 -0.519951
upperback -10.3676 -1.68816 1.49673
thorax -5.01644 -0.513953 1.73555
lowerneck -9.61065 -2.77915 -6.14361
upperneck 16.5902 -4.24503 9.31707
head 6.968 -1.56729 3.67646
rclavicle 5.5287e-015 1.38155e-014
rhumerus -57.2762 9.32375 -86.6536
rradius 66.5947
rwrist 30.1562
rhand -42.3445 57.0216
rfingers 7.12502
rthumb -15.227 27.602
lclavicle 5.5287e-015 1.38155e-014
lhumerus -57.4592 1.1814 83.0163
lradius 64.9667
lwrist 9.9011
lhand -32.0895 4.41952
lfingers 7.12502
lthumb -5.33512 34.3324
rfemur -15.5899 12.753 17.1816
rtibia 12.6351
rfoot -13.3239 -20.9376
rtoes -17.1052
lfemur 0 0 0
ltibia 0
lfoot 0 0
ltoes 0
1837
root 0.15505 17.8428 0.524277 -110.009 88.2752 -127.484
lowerback -10.4175 -1.74864 -0.553622
upperback -10.3701 -1.68119 1.50615
thorax -4.9728 -0.507487 1.76278
lowerneck -9.64821 -2.79032 -6.1206
upperneck 16.6293 -4.25188 9.23826
head 6.98576 -1.57446 3.64617
rclavicle -3.71479e-015 -2.38542e-015
rhumerus -57.1453 8.88257 -86.4755
rradius 64.906
rwrist 30.075
rhand -42.3358 57.3591
rfingers 7.12502
rthumb -15.2186 27.9388
lclavicle -3.71479e-015 -2.38542e-015
lhumerus -57.5188 1.29438 83.1228
lradius 63.7183
lwrist 9.73729
lhand -32.7983 3.87892
lfingers 7.12502
lthumb -6.01947 33.7734
rfemur -15.6474 12.736 17.1858
rtibia 12.659
rfoot -13.2438 -20.9504
rtoes -17.2918
lfemur 0 0 0
ltibia 0
lfoot 0 0
ltoes 0
1838
root 0.158004 17.8425 0.524412 -109.266 88.274 -126.767
lowerback -10.4433 -1.7413 -0.557304
upperback -10.3955 -1.66757 1.52158
thorax -4.98619 -0.498302 1.78157
lowerneck -9.63632 -2.79731 -6.12785
upperneck 16.6819 -4.24792 9.14757
head 6.99846 -1.5801 3.61863
rclavicle 3.42904e-015 -4.17448e-015
rhumerus -57.0175 8.50364 -86.3169
rradius 63.2268
rwrist 29.9878
rhand -42.5193 57.4632
rfingers 7.12502
rthumb -15.3954 28.0564
lclavicle 3.42904e-015 -4.17448e-015
lhumerus -57.5832 1.41513 83.178
lradius 62.4324
lwrist 9.42339
lhand -33.3445 3.97642
lfingers 7.12502
lthumb -6.54676 33.8552
rfemur -15.6774 12.7239 17.1969
rtibia 12.6849
rfoot -13.2684 -20.9367
rtoes -17.1834
lfemur 0 0 0
ltibia 0
lfoot 0 0
ltoes 0
1839
root 0.161622 17.8411 0.524397 -109.362 88.3437 -126.854
lowerback -10.4332 -1.72698 -0.626115
upperback -10.4224 -1.64232 1.50859
thorax -5.02024 -0.480429 1.80861
lowerneck -9.63917 -2.80448 -6.20274
upperneck 16.7692 -4.25004 9.15166
head 7.0288 -1.58349 3.63381
rclavicle -1.31695e-015 8.34896e-015
rhumerus -56.9241 8.11733 -86.1106
rradius 61.6632
rwrist 29.92
rhand -42.5903 57.4002
rfingers 7.12502
rthumb -15.4637 27.9987
lclavicle -1.31695e-015 8.34896e-015
lhumerus -57.6214 1.63976 83.1237
lradius 61.1155
lwrist 8.99471
lhand -33.4642 3.83586
lfingers 7.12502
lthumb -6.66234 33.711
rfemur -15.6525 12.7175 17.1266
rtibia 12.6782
rfoot -13.3925 -20.8767
rtoes -16.8006
lfemur 0 0 0
ltibia 0
lfoot 0 0
ltoes 0
1840
root 0.16509 17.8413 0.525048 -108.031 88.3644 -125.534
lowerback -10.3739 -1.6919 -0.617396
upperback -10.4893 -1.59107 1.49813
thorax -5.12791 -0.452199 1.79805
lowerneck -9.61065 -2.82037 -6.27188
upperneck 16.8493 -4.26608 9.15852
head 7.05237 -1.59364 3.64775
rclavicle 1.37037e-014 3.67752e-015
rhumerus -56.8678 7.67547 -85.8545
rradius 60.1865
rwrist 29.9391
rhand -42.4498 57.4494
rfingers 7.12502
rthumb -15.3285 28.0375
lclavicle 1.37037e-014 3.67752e-015
lhumerus -57.6631 1.81836 83.0659
lradius 59.8261
lwrist 8.67709
lhand -33.4151 3.48082
lfingers 7.12502
lthumb -6.61498 33.3575
rfemur -15.6387 12.7528 17.1211
rtibia 12.6327
rfoot -13.3649 -20.8568
rtoes -16.8374
lfemur 0 0 0
ltibia 0
lfoot 0 0
ltoes 0
